<?xml version="1.0" encoding="utf-8"?>
<!-- Svg Vector Icons : http://www.onlinewebfonts.com/icon -->
<!DOCTYPE svg PUBLIC "-//W3C//DTD SVG 1.1//EN" "http://www.w3.org/Graphics/SVG/1.1/DTD/svg11.dtd">
<svg version="1.1" xmlns="http://www.w3.org/2000/svg" xmlns:xlink="http://www.w3.org/1999/xlink" x="0px" y="0px" viewBox="0 0 256 256" enable-background="new 0 0 256 256" xml:space="preserve">
<metadata> Svg Vector Icons : http://www.onlinewebfonts.com/icon </metadata>
<g><g><path fill="#000000" d="M128,10C62.8,10,10,62.8,10,128c0,65.2,52.8,118,118,118c65.2,0,118-52.8,118-118C246,62.8,193.2,10,128,10z M200.9,200.9c-9.5,9.5-20.5,16.9-32.8,22.1c-12.7,5.4-26.2,8.1-40.1,8.1c-13.9,0-27.4-2.7-40.1-8.1c-12.3-5.2-23.3-12.6-32.8-22.1c-9.5-9.5-16.9-20.5-22.1-32.8c-5.3-12.7-8.1-26.2-8.1-40.1c0-13.9,2.7-27.4,8.1-40.1C38.1,75.6,45.6,64.5,55,55c9.5-9.5,20.5-16.9,32.8-22.1c12.7-5.3,26.2-8.1,40.1-8.1c13.9,0,27.4,2.7,40.1,8.1c12.3,5.2,23.3,12.6,32.8,22.1c9.5,9.5,16.9,20.5,22.1,32.8c5.4,12.7,8.1,26.2,8.1,40.1c0,13.9-2.7,27.4-8.1,40.1C217.8,180.4,210.4,191.4,200.9,200.9z"/><path fill="#000000" d="M170.8,67.8c-5.8-5.8-13.5-9-21.7-9s-15.9,3.2-21.6,9l-64.9,64.9c-11.9,11.9-11.9,31.4,0,43.3L73.6,187v0.1l7.8,7.8h49.5l5.9-5.9l2.1-2.1l53.8-53.8c11.9-11.9,11.9-31.4,0-43.3L170.8,67.8L170.8,67.8z M126,182.3H86.2l-14.9-14.9c-7.2-7.2-7.2-18.9,0-26l33.6-33.6l47.8,47.8L126,182.3z M184,124.3L161.3,147l-47.8-47.8l22.7-22.7c3.5-3.5,8.1-5.4,13-5.4c4.9,0,9.5,1.9,13,5.4L184,98.3C191.2,105.5,191.2,117.1,184,124.3L184,124.3z"/></g></g>
</svg>